<svg xmlns="http://www.w3.org/2000/svg" width="142" height="141.998" viewBox="0 0 142 141.998">
  <g id="Group_11" data-name="Group 11" transform="translate(-1 -1)">
    <rect id="Rectangle_42" data-name="Rectangle 42" width="126.5" height="93.279" transform="translate(8.75 36.463)" fill="#d1a482"/>
    <path id="Path_27" data-name="Path 27" d="M131.111,17.486v93.268H4.6V100.9c98.5-.71,104.564-68.009,104.65-83.414Z" transform="translate(4.147 18.984)" fill="none"/>
    <path id="Path_28" data-name="Path 28" d="M16.936,3.992,4.065,24.209H132.878L120.007,3.992A4.3,4.3,0,0,0,116.377,2H20.566A4.3,4.3,0,0,0,16.936,3.992Z" transform="translate(3.529 1.151)" fill="#fff"/>
    <path id="Path_29" data-name="Path 29" d="M132.873,24.222H4.062L8.15,17.81C91.349,18.929,104.387,7.935,105.441,2h10.93a4.3,4.3,0,0,1,3.636,2Z" transform="translate(3.526 1.147)" fill="#dee1e6"/>
    <path id="Path_30" data-name="Path 30" d="M2,14.543v6.663a2.221,2.221,0,0,0,2.221,2.221H137.476a2.221,2.221,0,0,0,2.221-2.221V14.543a2.221,2.221,0,0,0-2.221-2.221H4.221A2.221,2.221,0,0,0,2,14.543Z" transform="translate(1.152 13.037)" fill="#c7cbd1"/>
    <path id="Path_31" data-name="Path 31" d="M2,63.059v6.663a2.221,2.221,0,0,0,2.221,2.221H137.476a2.221,2.221,0,0,0,2.221-2.221V63.059a2.221,2.221,0,0,0-2.221-2.221H4.221A2.221,2.221,0,0,0,2,63.059Z" transform="translate(1.152 68.904)" fill="#dee1e6"/>
    <path id="Path_46" data-name="Path 46" d="M0,0H17.767V17.767H0Z" transform="translate(22.22 46.39)" fill="#fff"/>
    <path id="Path_47" data-name="Path 47" d="M0,0H17.767V17.767H0Z" transform="translate(22.22 74.22)" fill="#fff"/>
    <path id="Path_48" data-name="Path 48" d="M0,0H17.767V17.767H0Z" transform="translate(22.22 102.047)" fill="#fff"/>
    <path id="Path_32" data-name="Path 32" d="M10.863,39.864H28.63V22.1Z" transform="translate(11.357 24.293)" fill="#b78457"/>
    <path id="Path_45" data-name="Path 45" d="M0,0H17.767V17.767H0Z" transform="translate(63.116 46.39)" fill="#fff"/>
    <path id="Path_33" data-name="Path 33" d="M29.871,39.864H47.638V22.1Z" transform="translate(33.245 24.293)" fill="#b78457"/>
    <path id="Path_34" data-name="Path 34" d="M10.863,52.8H28.63V35.032Z" transform="translate(11.357 39.188)" fill="#b78457"/>
    <path id="Path_35" data-name="Path 35" d="M10.863,65.733H28.63V47.966Z" transform="translate(11.357 54.081)" fill="#b78457"/>
    <path id="Path_44" data-name="Path 44" d="M0,0H17.767V17.767H0Z" transform="translate(106.153 46.39)" fill="#fff"/>
    <rect id="Rectangle_48" data-name="Rectangle 48" width="17.767" height="17.767" transform="translate(106.153 74.22)" fill="#fff"/>
    <path id="Path_43" data-name="Path 43" d="M0,0H17.767V17.767H0Z" transform="translate(106.153 102.047)" fill="#fff"/>
    <path id="Path_36" data-name="Path 36" d="M49.874,39.864H67.641V22.1Z" transform="translate(56.279 24.293)" fill="#b78457"/>
    <path id="Path_37" data-name="Path 37" d="M49.874,52.8H67.641V35.032Z" transform="translate(56.279 39.188)" fill="#b78457"/>
    <path id="Path_38" data-name="Path 38" d="M49.874,65.733H67.641V47.966Z" transform="translate(56.279 54.081)" fill="#b78457"/>
    <g id="Group_8" data-name="Group 8" transform="translate(54.119 80.275)">
      <path id="Path_39" data-name="Path 39" d="M25.689,55.7V87.314H61.452V55.7C61.452,31.907,25.689,31.886,25.689,55.7Z" transform="translate(-25.689 -37.846)" fill="#b78457"/>
    </g>
    <g id="Group_9" data-name="Group 9" transform="translate(54.125 93.55)">
      <path id="Path_40" data-name="Path 40" d="M61.45,48.6V80.2H25.692V63.961c15.34-4.776,26.722-11.9,35.156-19.945A17.841,17.841,0,0,1,61.45,48.6Z" transform="translate(-25.692 -44.016)" fill="none"/>
    </g>
    <g id="Group_10" data-name="Group 10" transform="translate(1 1.001)">
      <path id="Path_41" data-name="Path 41" d="M138.628,38.615A4.377,4.377,0,0,0,143,34.243V27.58a4.377,4.377,0,0,0-4.372-4.372h-1.04L125.351,3.988A6.426,6.426,0,0,0,119.906,1H24.1A6.425,6.425,0,0,0,18.65,3.988L6.414,23.208H5.373A4.378,4.378,0,0,0,1,27.58v6.663a4.378,4.378,0,0,0,4.373,4.372H6.6v88.976H5.373A4.378,4.378,0,0,0,1,131.963v6.663A4.378,4.378,0,0,0,5.373,143H138.628A4.377,4.377,0,0,0,143,138.626v-6.663a4.377,4.377,0,0,0-4.372-4.372H137.4V38.615h1.226ZM22.281,6.3a2.138,2.138,0,0,1,1.814-1h95.811a2.138,2.138,0,0,1,1.814,1l10.765,16.909H11.516ZM5.3,34.243l.07-6.732L138.7,27.58v6.663a.069.069,0,0,1-.069.069Zm82.428,63.88v29.468H74.152V82.558A15.741,15.741,0,0,1,87.731,98.123ZM69.848,127.591H56.27V98.123A15.741,15.741,0,0,1,69.848,82.558Zm68.848,4.372v6.663a.069.069,0,0,1-.069.069L5.3,138.626l.07-6.732Zm-5.6-4.372H92.034V98.123a20.033,20.033,0,0,0-40.067,0v29.468H10.9V38.615H133.1Z" transform="translate(-1 -1.001)" fill="#231f20"/>
      <path id="Path_42" data-name="Path 42" d="M12.015,43.168H29.782a2.152,2.152,0,0,0,2.152-2.152V23.249A2.152,2.152,0,0,0,29.782,21.1H12.015a2.152,2.152,0,0,0-2.152,2.152V41.017A2.152,2.152,0,0,0,12.015,43.168ZM14.166,25.4H27.63V38.865H14.166V25.4ZM12.015,71H29.782a2.152,2.152,0,0,0,2.152-2.152V51.077a2.152,2.152,0,0,0-2.152-2.152H12.015a2.152,2.152,0,0,0-2.152,2.152V68.845A2.151,2.151,0,0,0,12.015,71Zm2.152-17.768H27.63V66.694H14.166V53.229Zm-2.152,45.6H29.782a2.152,2.152,0,0,0,2.152-2.152V78.906a2.152,2.152,0,0,0-2.152-2.152H12.015a2.152,2.152,0,0,0-2.152,2.152V96.673A2.151,2.151,0,0,0,12.015,98.825Zm2.152-17.767H27.63V94.522H14.166V81.058Zm81.782-37.89h17.767a2.152,2.152,0,0,0,2.152-2.152V23.249a2.152,2.152,0,0,0-2.152-2.152H95.948A2.152,2.152,0,0,0,93.8,23.249V41.017A2.152,2.152,0,0,0,95.948,43.168ZM98.1,25.4h13.464V38.865H98.1ZM52.91,43.168H70.678a2.152,2.152,0,0,0,2.152-2.152V23.249A2.152,2.152,0,0,0,70.678,21.1H52.91a2.152,2.152,0,0,0-2.152,2.152V41.017A2.152,2.152,0,0,0,52.91,43.168ZM55.062,25.4H68.527V38.865H55.062V25.4ZM95.948,71h17.767a2.152,2.152,0,0,0,2.152-2.152V51.077a2.152,2.152,0,0,0-2.152-2.152H95.948A2.152,2.152,0,0,0,93.8,51.077V68.845A2.152,2.152,0,0,0,95.948,71ZM98.1,53.229h13.464V66.694H98.1Zm-2.152,45.6h17.767a2.152,2.152,0,0,0,2.152-2.152V78.906a2.152,2.152,0,0,0-2.152-2.152H95.948A2.152,2.152,0,0,0,93.8,78.906V96.673A2.152,2.152,0,0,0,95.948,98.825ZM98.1,81.058h13.464V94.522H98.1Z" transform="translate(9.206 22.141)" fill="#231f20"/>
    </g>
  </g>
</svg>
